<svg xmlns="http://www.w3.org/2000/svg" viewBox="37.850006103515625 50 499.29998779296875 474.9980535254345"> <svg xmlns="http://www.w3.org/2000/svg" xmlns:xlink="http://www.w3.org/1999/xlink" viewBox="0 0 131.25 131.25" height="206.9383064347636" width="206.9383064347636" y="120" x="182.69659201384218" preserveAspectRatio="xMinYMin" style="overflow: visible;"><linearGradient id="Sfumatura_senza_nome_7" x1="90.23" y1="145.92" x2="103.56" y2="61.23" gradientTransform="translate(-4.15 -2.46)" gradientUnits="userSpaceOnUse" style=""><stop offset="0" stop-color="#ffc166"></stop><stop offset="1" stop-color="#f96"></stop></linearGradient><linearGradient id="Sfumatura_senza_nome_35" x1="2064.74" y1="-3799.49" x2="2165.6" y2="-3931.16" gradientTransform="translate(-4147.85 1272.52) rotate(45)" gradientUnits="userSpaceOnUse" style=""><stop offset="0" stop-color="#5858e8"></stop><stop offset="1" stop-color="#9b5efc"></stop></linearGradient><linearGradient id="Sfumatura_senza_nome_13" x1="1.47" y1="135.05" x2="50.72" y2="77.08" gradientUnits="userSpaceOnUse" style=""><stop offset="0" stop-color="#ff7854"></stop><stop offset="1" stop-color="#fd267d"></stop></linearGradient><polygon id="Livello_1-2" dataName="Livello 1" class="cls-1" points="131.25 65.9 65.9 131.25 65.83 62.73 131.23 65.35 131.25 65.9" style="fill: url(#Sfumatura_senza_nome_7);"></polygon><polygon id="Livello_1-2" dataName="Livello 1" class="cls-2" points="131.23 65.35 68.2 65.35 0 65.35 65.35 0 131.18 0.07 131.23 65.35" style="fill: url(#Sfumatura_senza_nome_35);"></polygon><polygon id="Livello_1-2" dataName="Livello 1" class="cls-3" points="48.32 117.14 2.76 128.49 14.11 82.94 48.32 82.94 48.32 117.14" style="fill: url(#Sfumatura_senza_nome_13);"></polygon></svg> <svg xmlns="http://www.w3.org/2000/svg" y="435.73805329655266" viewBox="1.159999966621399 5.71999979019165 359.29998779296875 19.260000228881836" x="107.85000610351562" height="19.260000228881836" width="359.29998779296875" style="overflow: visible;"><g fill="#3F37C9" fill-opacity="1" style=""><path d="M2.17 16.39L2.99 19.32Q3.23 19.56 3.61 19.73Q3.98 19.90 4.74 19.90L4.74 19.90Q5.38 19.90 5.94 19.73Q6.49 19.56 6.90 19.23Q7.31 18.90 7.55 18.44Q7.79 17.97 7.79 17.37L7.79 17.37Q7.79 16.57 7.30 16.03Q6.81 15.50 6.09 15.08Q5.36 14.66 4.50 14.26Q3.65 13.86 2.92 13.32Q2.19 12.77 1.70 12.00Q1.22 11.23 1.22 10.08L1.22 10.08Q1.22 9.24 1.51 8.59Q1.81 7.93 2.36 7.47Q2.91 7.01 3.67 6.76Q4.42 6.51 5.36 6.51L5.36 6.51Q6.57 6.51 7.58 6.70Q8.59 6.89 9.16 7.17L9.16 7.17Q9.16 7.51 9.11 7.96Q9.06 8.41 8.99 8.88Q8.92 9.36 8.84 9.81Q8.76 10.26 8.68 10.60L8.68 10.60L8.17 10.60L7.37 7.87Q7.01 7.71 6.46 7.63Q5.92 7.55 5.30 7.55L5.30 7.55Q4.28 7.55 3.67 8.12Q3.05 8.68 3.05 9.70L3.05 9.70Q3.05 10.52 3.54 11.08Q4.02 11.63 4.76 12.07Q5.50 12.51 6.34 12.92Q7.19 13.33 7.93 13.86Q8.66 14.40 9.15 15.14Q9.64 15.88 9.64 16.97L9.64 16.97Q9.64 17.87 9.31 18.60Q8.98 19.34 8.37 19.86Q7.75 20.38 6.85 20.66Q5.96 20.94 4.82 20.94L4.82 20.94Q3.57 20.94 2.57 20.64Q1.57 20.34 1.16 20.00L1.16 20.00Q1.18 19.66 1.23 19.18Q1.27 18.70 1.34 18.20Q1.41 17.69 1.49 17.21Q1.57 16.73 1.65 16.39L1.65 16.39L2.17 16.39ZM18.90 20.20L18.90 20.70L14.48 20.70L14.48 20.20Q14.78 20.04 15.10 19.93Q15.42 19.82 15.80 19.72L15.80 19.72L15.80 11.89L14.48 11.73L14.48 11.21Q15.06 10.98 15.74 10.80Q16.41 10.62 17.09 10.50L17.09 10.50L17.59 10.50L17.59 19.72Q17.99 19.82 18.31 19.93Q18.62 20.04 18.90 20.20L18.90 20.20ZM15.42 7.35L15.42 7.35Q15.42 6.81 15.77 6.49Q16.11 6.17 16.69 6.17L16.69 6.17Q17.27 6.17 17.61 6.49Q17.95 6.81 17.95 7.35L17.95 7.35Q17.95 7.89 17.61 8.20Q17.27 8.51 16.69 8.51L16.69 8.51Q16.11 8.51 15.77 8.20Q15.42 7.89 15.42 7.35ZM33.56 20.20L33.56 20.70L29.30 20.70L29.30 20.20Q29.50 20.08 29.79 19.95Q30.08 19.82 30.48 19.72L30.48 19.72L30.48 15.12Q30.48 14.32 30.41 13.68Q30.34 13.05 30.15 12.62Q29.96 12.19 29.60 11.96Q29.24 11.73 28.66 11.73L28.66 11.73Q28.23 11.73 27.86 11.91Q27.49 12.09 27.20 12.39Q26.91 12.69 26.70 13.07Q26.49 13.45 26.37 13.86L26.37 13.86L26.37 19.72Q26.69 19.82 26.98 19.93Q27.27 20.04 27.55 20.20L27.55 20.20L27.55 20.70L23.27 20.70L23.27 20.20Q23.54 20.06 23.88 19.94Q24.22 19.82 24.58 19.72L24.58 19.72L24.58 11.89L23.27 11.73L23.27 11.21Q23.90 10.94 24.57 10.77Q25.24 10.60 25.88 10.50L25.88 10.50L26.37 10.50L26.37 12.75L26.39 12.75Q26.71 11.81 27.48 11.15Q28.25 10.50 29.38 10.50L29.38 10.50Q29.86 10.50 30.30 10.60Q30.74 10.70 31.11 10.97Q31.49 11.23 31.75 11.71Q32.01 12.19 32.13 12.95L32.13 12.95Q32.49 11.85 33.28 11.17Q34.08 10.50 35.28 10.50L35.28 10.50Q36.01 10.50 36.56 10.69Q37.11 10.88 37.47 11.35Q37.83 11.83 38.00 12.65Q38.17 13.47 38.17 14.72L38.17 14.72L38.17 19.72Q38.84 19.84 39.48 20.20L39.48 20.20L39.48 20.70L35.20 20.70L35.20 20.20Q35.79 19.88 36.37 19.72L36.37 19.72L36.37 14.76Q36.37 14.04 36.30 13.49Q36.23 12.93 36.03 12.54Q35.83 12.15 35.48 11.94Q35.12 11.73 34.52 11.73L34.52 11.73Q33.56 11.73 33.04 12.39Q32.51 13.05 32.27 14.06L32.27 14.06L32.27 19.72Q32.97 19.92 33.56 20.20L33.56 20.20ZM47.87 24.18L47.87 24.68L43.44 24.68L43.44 24.18Q44.12 23.86 44.76 23.70L44.76 23.70L44.76 11.89L43.44 11.73L43.44 11.21Q44.08 10.94 44.75 10.77Q45.42 10.60 46.05 10.50L46.05 10.50L46.55 10.50L46.55 12.73L46.57 12.73Q46.97 11.71 47.69 11.10Q48.40 10.50 49.56 10.50L49.56 10.50Q51.33 10.50 52.31 11.67Q53.28 12.85 53.28 15.50L53.28 15.50Q53.28 16.75 52.96 17.77Q52.63 18.78 52.02 19.48Q51.41 20.18 50.54 20.56Q49.68 20.94 48.62 20.94L48.62 20.94Q47.89 20.94 47.47 20.85Q47.05 20.76 46.55 20.54L46.55 20.54L46.55 23.70Q46.87 23.74 47.19 23.85Q47.51 23.96 47.87 24.18L47.87 24.18ZM48.92 11.73L48.92 11.73Q47.95 11.73 47.37 12.35Q46.79 12.97 46.55 14.04L46.55 14.04L46.55 19.62Q46.91 19.84 47.36 19.95Q47.81 20.06 48.52 20.06L48.52 20.06Q49.18 20.06 49.71 19.72Q50.24 19.38 50.60 18.76Q50.97 18.15 51.17 17.32Q51.37 16.49 51.37 15.50L51.37 15.50Q51.37 14.68 51.24 13.99Q51.11 13.31 50.82 12.80Q50.53 12.29 50.07 12.01Q49.60 11.73 48.92 11.73ZM62.33 20.20L62.33 20.70L57.91 20.70L57.91 20.20Q58.56 19.88 59.22 19.72L59.22 19.72L59.22 7.11L57.71 6.95L57.71 6.43Q58.22 6.19 59.00 6.02Q59.78 5.84 60.51 5.72L60.51 5.72L61.01 5.72L61.01 19.72Q61.67 19.88 62.33 20.20L62.33 20.20ZM71.31 20.20L71.31 20.70L66.89 20.70L66.89 20.20Q67.19 20.04 67.51 19.93Q67.82 19.82 68.20 19.72L68.20 19.72L68.20 11.89L66.89 11.73L66.89 11.21Q67.47 10.98 68.14 10.80Q68.82 10.62 69.50 10.50L69.50 10.50L70.00 10.50L70.00 19.72Q70.39 19.82 70.71 19.93Q71.03 20.04 71.31 20.20L71.31 20.20ZM67.82 7.35L67.82 7.35Q67.82 6.81 68.17 6.49Q68.52 6.17 69.10 6.17L69.10 6.17Q69.68 6.17 70.02 6.49Q70.35 6.81 70.35 7.35L70.35 7.35Q70.35 7.89 70.02 8.20Q69.68 8.51 69.10 8.51L69.10 8.51Q68.52 8.51 68.17 8.20Q67.82 7.89 67.82 7.35ZM81.15 5.72L81.15 5.72Q81.33 5.72 81.57 5.74Q81.81 5.76 82.07 5.79Q82.33 5.82 82.57 5.87Q82.80 5.92 82.98 5.98L82.98 5.98Q82.92 6.63 82.81 7.20Q82.70 7.77 82.55 8.23L82.55 8.23L82.05 8.23L81.17 6.51Q80.59 6.51 80.18 6.63Q79.78 6.75 79.51 7.09Q79.24 7.43 79.11 8.07Q78.98 8.70 78.98 9.74L78.98 9.74L78.98 10.74L81.27 10.74L81.27 11.73L78.98 11.73L78.98 19.72Q80.02 19.84 80.89 20.20L80.89 20.20L80.89 20.70L75.87 20.70L75.87 20.20Q76.49 19.84 77.19 19.72L77.19 19.72L77.19 11.73L75.67 11.73L75.67 11.21Q76.37 10.78 77.19 10.56L77.19 10.56L77.19 9.86Q77.19 8.63 77.49 7.82Q77.78 7.01 78.32 6.54Q78.86 6.08 79.59 5.90Q80.31 5.72 81.15 5.72ZM89.84 20.70L85.69 11.73Q85.39 11.65 85.14 11.53Q84.90 11.41 84.64 11.25L84.64 11.25L84.64 10.74L88.80 10.74L88.80 11.23Q88.38 11.51 87.66 11.73L87.66 11.73L90.21 17.63L90.59 18.86L90.63 18.86L90.93 17.61L92.82 11.73Q92.23 11.61 91.73 11.25L91.73 11.25L91.73 10.74L95.13 10.74L95.13 11.25Q94.72 11.53 94.00 11.73L94.00 11.73L90.89 20.70Q90.41 21.97 89.98 22.76Q89.56 23.54 89.13 24.00Q88.70 24.46 88.25 24.67Q87.80 24.88 87.29 24.98L87.29 24.98Q87.07 24.60 86.90 24.14Q86.73 23.68 86.61 23.27L86.61 23.27L86.87 22.79L88.94 22.79Q89.06 22.63 89.15 22.48Q89.24 22.33 89.34 22.11Q89.44 21.89 89.56 21.55Q89.68 21.21 89.84 20.70L89.84 20.70ZM98.50 19.56L98.50 19.56Q98.50 18.96 98.88 18.60Q99.26 18.25 99.85 18.25L99.85 18.25Q100.47 18.25 100.85 18.60Q101.23 18.96 101.23 19.56L101.23 19.56Q101.23 20.14 100.85 20.50Q100.47 20.86 99.85 20.86L99.85 20.86Q99.26 20.86 98.88 20.50Q98.50 20.14 98.50 19.56ZM113.72 13.72L113.72 13.72Q113.72 12.17 114.15 10.85Q114.58 9.52 115.38 8.56Q116.19 7.59 117.36 7.05Q118.54 6.51 120.03 6.51L120.03 6.51Q121.53 6.51 122.70 7.05Q123.88 7.59 124.68 8.56Q125.49 9.52 125.92 10.85Q126.35 12.17 126.35 13.72L126.35 13.72Q126.35 15.28 125.92 16.60Q125.49 17.93 124.68 18.89Q123.88 19.86 122.70 20.40Q121.53 20.94 120.03 20.94L120.03 20.94Q118.54 20.94 117.36 20.40Q116.19 19.86 115.38 18.89Q114.58 17.93 114.15 16.60Q113.72 15.28 113.72 13.72ZM115.85 13.72L115.85 13.72Q115.85 15.00 116.12 16.12Q116.39 17.25 116.93 18.09Q117.46 18.92 118.28 19.41Q119.10 19.90 120.21 19.90L120.21 19.90Q121.23 19.90 121.99 19.41Q122.74 18.92 123.23 18.09Q123.72 17.25 123.97 16.12Q124.22 15.00 124.22 13.72L124.22 13.72Q124.22 12.45 123.96 11.32Q123.70 10.20 123.16 9.36Q122.62 8.53 121.81 8.04Q120.99 7.55 119.87 7.55L119.87 7.55Q118.78 7.55 118.01 8.04Q117.24 8.53 116.77 9.36Q116.29 10.20 116.07 11.32Q115.85 12.45 115.85 13.72ZM135.43 24.18L135.43 24.68L131.01 24.68L131.01 24.18Q131.69 23.86 132.32 23.70L132.32 23.70L132.32 11.89L131.01 11.73L131.01 11.21Q131.65 10.94 132.31 10.77Q132.98 10.60 133.62 10.50L133.62 10.50L134.12 10.50L134.12 12.73L134.14 12.73Q134.53 11.71 135.25 11.10Q135.97 10.50 137.12 10.50L137.12 10.50Q138.90 10.50 139.87 11.67Q140.85 12.85 140.85 15.50L140.85 15.50Q140.85 16.75 140.52 17.77Q140.19 18.78 139.58 19.48Q138.98 20.18 138.11 20.56Q137.24 20.94 136.19 20.94L136.19 20.94Q135.45 20.94 135.03 20.85Q134.61 20.76 134.12 20.54L134.12 20.54L134.12 23.70Q134.43 23.74 134.75 23.85Q135.07 23.96 135.43 24.18L135.43 24.18ZM136.49 11.73L136.49 11.73Q135.51 11.73 134.93 12.35Q134.35 12.97 134.12 14.04L134.12 14.04L134.12 19.62Q134.47 19.84 134.92 19.95Q135.37 20.06 136.09 20.06L136.09 20.06Q136.75 20.06 137.27 19.72Q137.80 19.38 138.17 18.76Q138.54 18.15 138.74 17.32Q138.94 16.49 138.94 15.50L138.94 15.50Q138.94 14.68 138.81 13.99Q138.68 13.31 138.39 12.80Q138.10 12.29 137.63 12.01Q137.16 11.73 136.49 11.73ZM144.73 11.73L144.73 11.21Q145.49 10.74 146.33 10.54L146.33 10.54L146.33 8.84Q146.59 8.63 146.93 8.46Q147.28 8.29 147.62 8.13L147.62 8.13L148.12 8.13L148.12 10.74L151.11 10.74L151.11 11.73L148.12 11.73L148.12 17.51Q148.12 18.70 148.50 19.20Q148.88 19.70 149.63 19.70L149.63 19.70Q149.99 19.70 150.53 19.65Q151.07 19.60 151.45 19.46L151.45 19.46L151.59 19.76Q151.43 19.94 151.14 20.14Q150.85 20.34 150.48 20.52Q150.11 20.70 149.67 20.82Q149.23 20.94 148.78 20.94L148.78 20.94Q147.58 20.94 146.95 20.26Q146.33 19.58 146.33 18.07L146.33 18.07L146.33 11.73L144.73 11.73ZM160.05 20.20L160.05 20.70L155.63 20.70L155.63 20.20Q155.93 20.04 156.25 19.93Q156.56 19.82 156.94 19.72L156.94 19.72L156.94 11.89L155.63 11.73L155.63 11.21Q156.21 10.98 156.88 10.80Q157.56 10.62 158.24 10.50L158.24 10.50L158.74 10.50L158.74 19.72Q159.13 19.82 159.45 19.93Q159.77 20.04 160.05 20.20L160.05 20.20ZM156.56 7.35L156.56 7.35Q156.56 6.81 156.91 6.49Q157.26 6.17 157.84 6.17L157.84 6.17Q158.42 6.17 158.76 6.49Q159.09 6.81 159.09 7.35L159.09 7.35Q159.09 7.89 158.76 8.20Q158.42 8.51 157.84 8.51L157.84 8.51Q157.26 8.51 156.91 8.20Q156.56 7.89 156.56 7.35ZM174.71 20.20L174.71 20.70L170.45 20.70L170.45 20.20Q170.65 20.08 170.94 19.95Q171.23 19.82 171.62 19.72L171.62 19.72L171.62 15.12Q171.62 14.32 171.55 13.68Q171.48 13.05 171.30 12.62Q171.11 12.19 170.75 11.96Q170.39 11.73 169.81 11.73L169.81 11.73Q169.37 11.73 169.00 11.91Q168.64 12.09 168.35 12.39Q168.06 12.69 167.85 13.07Q167.64 13.45 167.52 13.86L167.52 13.86L167.52 19.72Q167.84 19.82 168.13 19.93Q168.42 20.04 168.70 20.20L168.70 20.20L168.70 20.70L164.41 20.70L164.41 20.20Q164.69 20.06 165.03 19.94Q165.37 19.82 165.73 19.72L165.73 19.72L165.73 11.89L164.41 11.73L164.41 11.21Q165.05 10.94 165.72 10.77Q166.39 10.60 167.02 10.50L167.02 10.50L167.52 10.50L167.52 12.75L167.54 12.75Q167.86 11.81 168.63 11.15Q169.39 10.50 170.53 10.50L170.53 10.50Q171.01 10.50 171.44 10.60Q171.88 10.70 172.26 10.97Q172.64 11.23 172.90 11.71Q173.16 12.19 173.28 12.95L173.28 12.95Q173.64 11.85 174.43 11.17Q175.23 10.50 176.42 10.50L176.42 10.50Q177.16 10.50 177.71 10.69Q178.26 10.88 178.62 11.35Q178.97 11.83 179.14 12.65Q179.31 13.47 179.31 14.72L179.31 14.72L179.31 19.72Q179.99 19.84 180.63 20.20L180.63 20.20L180.63 20.70L176.34 20.70L176.34 20.20Q176.94 19.88 177.52 19.72L177.52 19.72L177.52 14.76Q177.52 14.04 177.45 13.49Q177.38 12.93 177.18 12.54Q176.98 12.15 176.62 11.94Q176.26 11.73 175.67 11.73L175.67 11.73Q174.71 11.73 174.18 12.39Q173.66 13.05 173.42 14.06L173.42 14.06L173.42 19.72Q174.11 19.92 174.71 20.20L174.71 20.20ZM188.40 20.12L188.40 20.70L183.97 20.70L183.97 20.12Q184.69 19.80 185.41 19.64L185.41 19.64L190.45 6.51L191.03 6.51L196.06 19.64Q196.46 19.72 196.85 19.82Q197.24 19.92 197.58 20.12L197.58 20.12L197.58 20.70L192.48 20.70L192.48 20.12Q192.88 19.96 193.30 19.84Q193.71 19.72 194.11 19.64L194.11 19.64L192.76 16.00L188.00 16.00L186.68 19.64Q187.52 19.76 188.40 20.12L188.40 20.12ZM189.93 10.78L188.40 14.96L192.42 14.96L190.85 10.74L190.47 9.02L190.43 9.02L189.93 10.78ZM206.62 20.12L206.62 20.70L201.52 20.70L201.52 20.12Q202.30 19.76 203.12 19.64L203.12 19.64L203.12 7.83Q202.72 7.75 202.32 7.62Q201.92 7.49 201.52 7.33L201.52 7.33L201.52 6.75L206.62 6.75L206.62 7.33Q206.26 7.49 205.84 7.62Q205.43 7.75 205.03 7.83L205.03 7.83L205.03 19.64Q205.45 19.72 205.86 19.84Q206.28 19.96 206.62 20.12L206.62 20.12ZM218.49 17.29L218.99 17.29Q219.13 18.13 219.20 18.97Q219.27 19.82 219.23 20.70L219.23 20.70L211.42 20.70L211.42 20.20L217.10 11.61L213.33 11.61L212.46 13.96L211.96 13.96Q211.80 13.11 211.77 12.28Q211.74 11.45 211.74 10.74L211.74 10.74L219.23 10.74L219.23 11.25L213.53 19.82L217.42 19.82L218.49 17.29ZM231.64 18.98L231.92 19.30Q231.76 19.64 231.42 19.94Q231.08 20.24 230.64 20.46Q230.21 20.68 229.69 20.81Q229.17 20.94 228.63 20.94L228.63 20.94Q227.46 20.94 226.56 20.57Q225.66 20.20 225.07 19.51Q224.47 18.82 224.16 17.87Q223.85 16.91 223.85 15.72L223.85 15.72Q223.85 13.17 225.03 11.83Q226.20 10.50 228.35 10.50L228.35 10.50Q229.05 10.50 229.73 10.69Q230.41 10.88 230.93 11.31Q231.46 11.75 231.79 12.48Q232.12 13.21 232.12 14.28L232.12 14.28Q232.12 14.62 232.09 14.97Q232.06 15.32 231.98 15.72L231.98 15.72L225.76 15.72Q225.76 16.55 225.97 17.28Q226.18 18.01 226.60 18.54Q227.02 19.08 227.66 19.39Q228.29 19.70 229.15 19.70L229.15 19.70Q229.85 19.70 230.56 19.50Q231.28 19.30 231.64 18.98L231.64 18.98ZM228.27 11.37L228.27 11.37Q227.14 11.37 226.54 12.14Q225.94 12.91 225.82 14.84L225.82 14.84L230.21 14.84Q230.23 14.66 230.24 14.49Q230.25 14.32 230.25 14.16L230.25 14.16Q230.25 12.89 229.77 12.13Q229.29 11.37 228.27 11.37ZM243.55 18.72L243.47 18.72Q243.37 19.16 243.13 19.56Q242.89 19.96 242.55 20.27Q242.20 20.58 241.75 20.76Q241.30 20.94 240.78 20.94L240.78 20.94Q238.81 20.94 237.84 19.68Q236.86 18.43 236.86 15.78L236.86 15.78Q236.86 13.23 238.10 11.89Q239.35 10.56 241.46 10.56L241.46 10.56Q242.20 10.56 242.62 10.63Q243.03 10.70 243.53 10.88L243.53 10.88L243.53 7.11L242.02 6.95L242.02 6.43Q242.60 6.19 243.36 6.02Q244.13 5.84 244.83 5.72L244.83 5.72L245.32 5.72L245.32 19.56L246.64 19.72L246.64 20.14Q246.06 20.42 245.44 20.62Q244.83 20.82 244.23 20.90L244.23 20.90L243.73 20.90L243.55 18.72ZM241.18 19.70L241.18 19.70Q242.16 19.70 242.74 19.08Q243.31 18.47 243.53 17.41L243.53 17.41L243.53 11.79Q243.19 11.59 242.74 11.51Q242.28 11.43 241.56 11.43L241.56 11.43Q240.21 11.43 239.49 12.62Q238.77 13.80 238.77 15.78L238.77 15.78Q238.77 16.59 238.91 17.30Q239.05 18.01 239.35 18.54Q239.65 19.08 240.10 19.39Q240.54 19.70 241.18 19.70ZM251.50 19.56L251.50 19.56Q251.50 18.96 251.88 18.60Q252.26 18.25 252.85 18.25L252.85 18.25Q253.47 18.25 253.85 18.60Q254.23 18.96 254.23 19.56L254.23 19.56Q254.23 20.14 253.85 20.50Q253.47 20.86 252.85 20.86L252.85 20.86Q252.26 20.86 251.88 20.50Q251.50 20.14 251.50 19.56ZM269.71 20.12L269.71 20.70L265.28 20.70L265.28 20.12Q266.00 19.80 266.72 19.64L266.72 19.64L271.76 6.51L272.34 6.51L277.37 19.64Q277.77 19.72 278.16 19.82Q278.55 19.92 278.89 20.12L278.89 20.12L278.89 20.70L273.79 20.70L273.79 20.12Q274.19 19.96 274.61 19.84Q275.02 19.72 275.42 19.64L275.42 19.64L274.07 16.00L269.31 16.00L267.99 19.64Q268.83 19.76 269.71 20.12L269.71 20.12ZM271.24 10.78L269.71 14.96L273.73 14.96L272.16 10.74L271.78 9.02L271.74 9.02L271.24 10.78ZM292.79 20.20L292.79 20.70L288.53 20.70L288.53 20.20Q288.73 20.08 289.02 19.95Q289.31 19.82 289.70 19.72L289.70 19.72L289.70 15.12Q289.70 14.32 289.64 13.68Q289.57 13.05 289.38 12.62Q289.19 12.19 288.83 11.96Q288.47 11.73 287.89 11.73L287.89 11.73Q287.45 11.73 287.09 11.91Q286.72 12.09 286.43 12.39Q286.14 12.69 285.93 13.07Q285.72 13.45 285.60 13.86L285.60 13.86L285.60 19.72Q285.92 19.82 286.21 19.93Q286.50 20.04 286.78 20.20L286.78 20.20L286.78 20.70L282.49 20.70L282.49 20.20Q282.77 20.06 283.11 19.94Q283.45 19.82 283.81 19.72L283.81 19.72L283.81 11.89L282.49 11.73L282.49 11.21Q283.13 10.94 283.80 10.77Q284.47 10.60 285.10 10.50L285.10 10.50L285.60 10.50L285.60 12.75L285.62 12.75Q285.94 11.81 286.71 11.15Q287.47 10.50 288.61 10.50L288.61 10.50Q289.09 10.50 289.53 10.60Q289.96 10.70 290.34 10.97Q290.72 11.23 290.98 11.71Q291.24 12.19 291.36 12.95L291.36 12.95Q291.72 11.85 292.51 11.17Q293.31 10.50 294.51 10.50L294.51 10.50Q295.24 10.50 295.79 10.69Q296.34 10.88 296.70 11.35Q297.05 11.83 297.22 12.65Q297.39 13.47 297.39 14.72L297.39 14.72L297.39 19.72Q298.07 19.84 298.71 20.20L298.71 20.20L298.71 20.70L294.43 20.70L294.43 20.20Q295.02 19.88 295.60 19.72L295.60 19.72L295.60 14.76Q295.60 14.04 295.53 13.49Q295.46 12.93 295.26 12.54Q295.06 12.15 294.70 11.94Q294.35 11.73 293.75 11.73L293.75 11.73Q292.79 11.73 292.26 12.39Q291.74 13.05 291.50 14.06L291.50 14.06L291.50 19.72Q292.19 19.92 292.79 20.20L292.79 20.20ZM307.09 24.18L307.09 24.68L302.67 24.68L302.67 24.18Q303.35 23.86 303.99 23.70L303.99 23.70L303.99 11.89L302.67 11.73L302.67 11.21Q303.31 10.94 303.98 10.77Q304.64 10.60 305.28 10.50L305.28 10.50L305.78 10.50L305.78 12.73L305.80 12.73Q306.20 11.71 306.91 11.10Q307.63 10.50 308.79 10.50L308.79 10.50Q310.56 10.50 311.54 11.67Q312.51 12.85 312.51 15.50L312.51 15.50Q312.51 16.75 312.18 17.77Q311.85 18.78 311.25 19.48Q310.64 20.18 309.77 20.56Q308.91 20.94 307.85 20.94L307.85 20.94Q307.11 20.94 306.70 20.85Q306.28 20.76 305.78 20.54L305.78 20.54L305.78 23.70Q306.10 23.74 306.42 23.85Q306.74 23.96 307.09 24.18L307.09 24.18ZM308.15 11.73L308.15 11.73Q307.17 11.73 306.60 12.35Q306.02 12.97 305.78 14.04L305.78 14.04L305.78 19.62Q306.14 19.84 306.59 19.95Q307.03 20.06 307.75 20.06L307.75 20.06Q308.41 20.06 308.94 19.72Q309.46 19.38 309.83 18.76Q310.20 18.15 310.40 17.32Q310.60 16.49 310.60 15.50L310.60 15.50Q310.60 14.68 310.47 13.99Q310.34 13.31 310.05 12.80Q309.76 12.29 309.30 12.01Q308.83 11.73 308.15 11.73ZM321.56 20.20L321.56 20.70L317.13 20.70L317.13 20.20Q317.79 19.88 318.45 19.72L318.45 19.72L318.45 7.11L316.93 6.95L316.93 6.43Q317.45 6.19 318.23 6.02Q319.01 5.84 319.74 5.72L319.74 5.72L320.24 5.72L320.24 19.72Q320.90 19.88 321.56 20.20L321.56 20.20ZM330.54 20.20L330.54 20.70L326.12 20.70L326.12 20.20Q326.42 20.04 326.73 19.93Q327.05 19.82 327.43 19.72L327.43 19.72L327.43 11.89L326.12 11.73L326.12 11.21Q326.69 10.98 327.37 10.80Q328.05 10.62 328.73 10.50L328.73 10.50L329.22 10.50L329.22 19.72Q329.62 19.82 329.94 19.93Q330.26 20.04 330.54 20.20L330.54 20.20ZM327.05 7.35L327.05 7.35Q327.05 6.81 327.40 6.49Q327.75 6.17 328.33 6.17L328.33 6.17Q328.91 6.17 329.24 6.49Q329.58 6.81 329.58 7.35L329.58 7.35Q329.58 7.89 329.24 8.20Q328.91 8.51 328.33 8.51L328.33 8.51Q327.75 8.51 327.40 8.20Q327.05 7.89 327.05 7.35ZM340.38 5.72L340.38 5.72Q340.56 5.72 340.80 5.74Q341.04 5.76 341.30 5.79Q341.55 5.82 341.79 5.87Q342.03 5.92 342.21 5.98L342.21 5.98Q342.15 6.63 342.04 7.20Q341.93 7.77 341.77 8.23L341.77 8.23L341.28 8.23L340.40 6.51Q339.82 6.51 339.41 6.63Q339.00 6.75 338.74 7.09Q338.47 7.43 338.34 8.07Q338.21 8.70 338.21 9.74L338.21 9.74L338.21 10.74L340.50 10.74L340.50 11.73L338.21 11.73L338.21 19.72Q339.24 19.84 340.12 20.20L340.12 20.20L340.12 20.70L335.10 20.70L335.10 20.20Q335.72 19.84 336.42 19.72L336.42 19.72L336.42 11.73L334.90 11.73L334.90 11.21Q335.60 10.78 336.42 10.56L336.42 10.56L336.42 9.86Q336.42 8.63 336.71 7.82Q337.01 7.01 337.55 6.54Q338.09 6.08 338.82 5.90Q339.54 5.72 340.38 5.72ZM349.06 20.70L344.92 11.73Q344.62 11.65 344.37 11.53Q344.12 11.41 343.87 11.25L343.87 11.25L343.87 10.74L348.03 10.74L348.03 11.23Q347.61 11.51 346.89 11.73L346.89 11.73L349.44 17.63L349.82 18.86L349.86 18.86L350.16 17.61L352.05 11.73Q351.45 11.61 350.96 11.25L350.96 11.25L350.96 10.74L354.36 10.74L354.36 11.25Q353.94 11.53 353.23 11.73L353.23 11.73L350.12 20.70Q349.64 21.97 349.21 22.76Q348.79 23.54 348.36 24.00Q347.93 24.46 347.48 24.67Q347.03 24.88 346.51 24.98L346.51 24.98Q346.30 24.60 346.13 24.14Q345.96 23.68 345.84 23.27L345.84 23.27L346.10 22.79L348.17 22.79Q348.29 22.63 348.38 22.48Q348.47 22.33 348.57 22.11Q348.67 21.89 348.79 21.55Q348.90 21.21 349.06 20.70L349.06 20.70ZM357.73 19.56L357.73 19.56Q357.73 18.96 358.11 18.60Q358.49 18.25 359.08 18.25L359.08 18.25Q359.70 18.25 360.08 18.60Q360.46 18.96 360.46 19.56L360.46 19.56Q360.46 20.14 360.08 20.50Q359.70 20.86 359.08 20.86L359.08 20.86Q358.49 20.86 358.11 20.50Q357.73 20.14 357.73 19.56Z" transform="translate(0, 0)"></path></g></svg> <svg xmlns="http://www.w3.org/2000/svg" y="367.8832503182783" viewBox="1.6400001049041748 18.1200008392334 353.0699768066406 51.862403869628906" x="109.63081404761476" height="51.862403869628906" width="353.0699768066406" style="overflow: visible;"><g fill="#3A0CA3" fill-opacity="1" style=""><path d="M11.68 41.14L11.68 55.65Q12.98 55.93 14.17 56.24Q15.35 56.55 16.48 57.00L16.48 57.00L16.48 58.64L1.64 58.64L1.64 57.00Q2.88 56.44 4.01 56.16Q5.14 55.87 6.26 55.65L6.26 55.65L6.26 22.18Q4.80 21.90 3.67 21.53Q2.54 21.16 1.64 20.77L1.64 20.77L1.64 19.13L6.60 19.13Q8.86 19.13 11.54 18.91Q14.22 18.68 16.76 18.68L16.76 18.68Q19.53 18.68 21.93 19.30Q24.32 19.92 26.07 21.28Q27.82 22.63 28.81 24.72Q29.80 26.81 29.80 29.74L29.80 29.74Q29.80 33.86 27.63 36.57Q25.45 39.28 21.73 40.47L21.73 40.47Q24.16 44.30 26.81 48.08Q29.46 51.87 32.34 55.59L32.34 55.59L35.39 57.23L35.39 58.64L28.56 58.64L26.41 57.06Q24.83 55.08 23.53 53.19Q22.24 51.30 21.11 49.35Q19.98 47.41 18.99 45.40Q18.00 43.40 16.99 41.14L16.99 41.14L11.68 41.14ZM15.52 21.62L15.52 21.62Q14.17 21.62 13.29 21.67Q12.42 21.73 11.68 21.90L11.68 21.90L11.68 38.77L15.75 38.77Q19.64 38.77 21.93 36.29Q24.21 33.81 24.21 29.74L24.21 29.74Q24.21 25.57 21.78 23.59Q19.36 21.62 15.52 21.62ZM40.97 19.13L67.73 19.13Q67.67 21.39 67.53 23.68Q67.39 25.96 67.10 28.28L67.10 28.28L65.64 28.28L63.32 22.07L51.02 22.07L51.02 37.02L60.22 37.02L62.42 32.85L63.83 32.85Q64.17 38.43 63.83 44.25L63.83 44.25L62.42 44.25L60.22 39.96L51.02 39.96L51.02 55.70L64.00 55.70L66.77 48.93L68.18 48.93Q68.57 51.30 68.74 53.73Q68.91 56.16 68.80 58.64L68.80 58.64L40.97 58.64L40.97 57.00Q42.95 56.10 45.60 55.65L45.60 55.65L45.60 22.18Q44.47 21.95 43.29 21.59Q42.10 21.22 40.97 20.77L40.97 20.77L40.97 19.13ZM88.10 57.00L88.10 58.64L75.57 58.64L75.57 57.00Q77.60 56.10 79.63 55.65L79.63 55.65L93.91 18.46L95.55 18.46L109.83 55.65Q110.96 55.87 112.06 56.16Q113.16 56.44 114.12 57.00L114.12 57.00L114.12 58.64L99.67 58.64L99.67 57.00Q100.80 56.55 101.98 56.21Q103.17 55.87 104.30 55.65L104.30 55.65L100.46 45.32L86.97 45.32L83.25 55.65Q85.62 55.99 88.10 57.00L88.10 57.00ZM92.44 30.53L88.10 42.38L99.50 42.38L95.04 30.42L93.97 25.57L93.86 25.57L92.44 30.53ZM142.67 55.37L145.33 48.37L146.79 48.37Q147.08 49.95 147.30 52.35Q147.53 54.74 147.42 57.00L147.42 57.00Q146.57 57.68 145.38 58.10Q144.20 58.53 142.87 58.81Q141.55 59.09 140.16 59.20Q138.78 59.32 137.54 59.32L137.54 59.32Q132.80 59.32 129.07 58.10Q125.35 56.89 122.78 54.41Q120.21 51.92 118.83 48.06Q117.45 44.19 117.45 38.89L117.45 38.89Q117.45 33.35 118.97 29.49Q120.49 25.62 123.09 23.17Q125.69 20.71 129.13 19.58Q132.57 18.46 136.35 18.46L136.35 18.46Q140.08 18.46 142.62 18.93Q145.16 19.41 147.08 20.37L147.08 20.37Q147.08 21.28 147.02 22.49Q146.96 23.70 146.85 25.06Q146.74 26.41 146.57 27.71Q146.40 29.01 146.23 30.08L146.23 30.08L144.76 30.08L141.83 21.95Q141.21 21.62 139.77 21.50Q138.33 21.39 136.92 21.39L136.92 21.39Q134.10 21.39 131.58 22.43Q129.07 23.48 127.18 25.65Q125.29 27.82 124.16 31.13Q123.03 34.43 123.03 38.89L123.03 38.89Q123.03 42.89 124.05 46.14Q125.07 49.38 126.98 51.67Q128.90 53.95 131.67 55.17Q134.43 56.38 137.93 56.38L137.93 56.38Q139.80 56.38 141.04 56.10Q142.28 55.82 142.67 55.37L142.67 55.37ZM178.23 57.00L178.23 58.64L162.37 58.64L162.37 57.00Q163.61 56.55 164.88 56.21Q166.15 55.87 167.62 55.65L167.62 55.65L167.62 22.07L158.99 22.07L155.99 30.14L154.58 30.14Q154.41 29.01 154.30 27.57Q154.19 26.13 154.10 24.64Q154.02 23.14 153.96 21.70Q153.91 20.26 153.91 19.13L153.91 19.13L186.70 19.13Q186.70 20.26 186.64 21.67Q186.58 23.08 186.50 24.58Q186.41 26.07 186.33 27.51Q186.24 28.95 186.08 30.14L186.08 30.14L184.61 30.14L181.67 22.07L173.04 22.07L173.04 55.65Q174.51 55.93 175.78 56.21Q177.05 56.49 178.23 57.00L178.23 57.00ZM208.31 57.00L208.31 58.64L193.86 58.64L193.86 57.00Q196.06 55.99 198.38 55.65L198.38 55.65L198.38 22.18Q197.25 21.95 196.12 21.59Q194.99 21.22 193.86 20.77L193.86 20.77L193.86 19.13L208.31 19.13L208.31 20.77Q207.30 21.22 206.11 21.59Q204.93 21.95 203.80 22.18L203.80 22.18L203.80 55.65Q204.98 55.87 206.17 56.21Q207.35 56.55 208.31 57.00L208.31 57.00ZM257.02 64.34L257.30 65.13Q255.04 67.16 252.67 68.60Q250.30 70.04 247.59 69.98L247.59 69.98Q245.28 69.98 242.74 69.14Q240.20 68.29 237.32 67.10Q234.44 65.92 231.20 64.62Q227.95 63.32 224.17 62.36L224.17 62.36L225.86 61.23Q227.11 61.07 228.29 61.07L228.29 61.07Q231.11 61.07 233.85 61.74Q236.59 62.42 239.35 63.21Q242.12 64.00 244.94 64.68Q247.76 65.35 250.70 65.35L250.70 65.35Q252.22 65.35 253.80 65.13Q255.38 64.90 257.02 64.34L257.02 64.34ZM217.40 38.89L217.40 38.89Q217.40 34.48 218.61 30.73Q219.82 26.98 222.11 24.24Q224.40 21.50 227.73 19.98Q231.06 18.46 235.29 18.46L235.29 18.46Q239.52 18.46 242.85 19.98Q246.18 21.50 248.47 24.24Q250.75 26.98 251.97 30.73Q253.18 34.48 253.18 38.89L253.18 38.89Q253.18 43.29 251.97 47.04Q250.75 50.79 248.47 53.53Q246.18 56.27 242.85 57.79Q239.52 59.32 235.29 59.32L235.29 59.32Q231.06 59.32 227.73 57.79Q224.40 56.27 222.11 53.53Q219.82 50.79 218.61 47.04Q217.40 43.29 217.40 38.89ZM223.44 38.89L223.44 38.89Q223.44 42.50 224.20 45.69Q224.96 48.88 226.48 51.25Q228.01 53.62 230.32 55.00Q232.64 56.38 235.80 56.38L235.80 56.38Q238.68 56.38 240.82 55.00Q242.96 53.62 244.35 51.25Q245.73 48.88 246.44 45.69Q247.14 42.50 247.14 38.89L247.14 38.89Q247.14 35.27 246.41 32.08Q245.67 28.90 244.15 26.53Q242.63 24.16 240.31 22.77Q238.00 21.39 234.84 21.39L234.84 21.39Q231.73 21.39 229.56 22.77Q227.39 24.16 226.03 26.53Q224.68 28.90 224.06 32.08Q223.44 35.27 223.44 38.89ZM274.01 56.66L274.01 56.66Q275.59 56.66 276.94 55.96Q278.29 55.25 279.31 54.04Q280.33 52.83 280.92 51.25Q281.51 49.67 281.51 47.92L281.51 47.92Q281.51 45.83 280.86 44.25Q280.21 42.67 279.08 41.62Q277.96 40.58 276.46 40.04Q274.96 39.51 273.22 39.51L273.22 39.51L269.55 39.51L269.55 37.98L279.03 25.28L280.95 23.31L280.95 23.08L277.90 23.42L268.36 23.42L266.16 29.18L264.75 29.18Q264.52 27.99 264.33 26.64Q264.13 25.28 263.96 23.96Q263.79 22.63 263.68 21.39Q263.56 20.15 263.56 19.13L263.56 19.13L285.63 19.13L285.63 20.88L276.21 33.47L273.78 35.95L273.78 36.06L275.70 35.67Q278.35 35.78 280.44 36.68Q282.53 37.59 283.97 39.08Q285.41 40.58 286.17 42.58Q286.93 44.59 286.93 46.96L286.93 46.96Q286.93 49.78 285.80 52.06Q284.67 54.35 282.78 55.96Q280.89 57.57 278.44 58.44Q275.98 59.32 273.27 59.32L273.27 59.32Q271.97 59.32 270.51 59.12Q269.04 58.92 267.63 58.53Q266.22 58.13 265.00 57.62Q263.79 57.11 262.94 56.44L262.94 56.44L264.52 51.36L265.65 51.36Q265.99 51.75 266.58 52.37Q267.18 53.00 267.83 53.67Q268.47 54.35 269.10 55.03Q269.72 55.70 270.17 56.21L270.17 56.21Q270.73 56.32 271.63 56.49Q272.54 56.66 274.01 56.66ZM321.36 46.73L321.36 46.73Q321.36 49.33 320.45 51.61Q319.55 53.90 317.91 55.62Q316.28 57.34 313.96 58.33Q311.65 59.32 308.83 59.32L308.83 59.32Q305.67 59.32 303.24 58.22Q300.81 57.11 299.15 55.14Q297.48 53.16 296.64 50.46Q295.79 47.75 295.79 44.53L295.79 44.53Q295.79 39.22 297.54 34.79Q299.29 30.36 302.20 26.95Q305.10 23.53 308.86 21.28Q312.61 19.02 316.67 18.12L316.67 18.12L317.29 19.81Q314.30 20.88 311.62 22.72Q308.94 24.55 306.82 27.03Q304.71 29.52 303.30 32.59Q301.89 35.67 301.55 39.22L301.55 39.22Q302.45 37.70 304.76 36.43Q307.08 35.16 310.13 35.16L310.13 35.16Q312.55 35.16 314.64 35.95Q316.73 36.74 318.20 38.21Q319.66 39.68 320.51 41.82Q321.36 43.96 321.36 46.73ZM315.94 47.18L315.94 47.18Q315.94 43.17 313.99 40.64Q312.04 38.10 308.55 38.10L308.55 38.10Q305.89 38.10 304.00 39.42Q302.11 40.75 301.32 42.38L301.32 42.38Q301.21 43.17 301.21 44.25Q301.21 45.32 301.21 45.94L301.21 45.94Q301.21 47.75 301.69 49.64Q302.17 51.53 303.16 53.11Q304.14 54.69 305.64 55.70Q307.13 56.72 309.11 56.72L309.11 56.72Q310.92 56.72 312.21 55.90Q313.51 55.08 314.33 53.73Q315.15 52.37 315.54 50.65Q315.94 48.93 315.94 47.18ZM328.47 38.89L328.47 38.89Q328.47 28.73 331.85 23.59Q335.24 18.46 341.56 18.46L341.56 18.46Q348.39 18.46 351.55 23.51Q354.71 28.56 354.71 38.89L354.71 38.89Q354.71 49.04 351.30 54.18Q347.88 59.32 341.22 59.32L341.22 59.32Q337.78 59.32 335.35 57.93Q332.93 56.55 331.40 53.93Q329.88 51.30 329.17 47.52Q328.47 43.74 328.47 38.89ZM333.89 38.89L333.89 38.89Q333.89 42.95 334.28 46.28Q334.68 49.61 335.55 52.01Q336.43 54.41 337.81 55.70Q339.19 57.00 341.17 57.00L341.17 57.00Q345.62 57.00 347.46 52.60Q349.29 48.20 349.29 38.89L349.29 38.89Q349.29 34.82 348.95 31.49Q348.62 28.16 347.71 25.79Q346.81 23.42 345.31 22.12Q343.82 20.83 341.56 20.83L341.56 20.83Q337.33 20.83 335.61 25.20Q333.89 29.57 333.89 38.89Z" transform="translate(0, 0)"></path></g></svg></svg>